<svg width="67" height="98" viewBox="0 0 67 98" fill="none" xmlns="http://www.w3.org/2000/svg">
<path d="M58.5282 43.1857C55.5363 43.4863 53.4549 46.8671 54.1704 50.1728L53.65 47.393C53.1297 44.5381 50.7882 42.4344 48.3166 42.735C45.3247 43.0355 43.2433 46.4163 43.9588 49.722L43.4384 46.9422C42.9181 44.0873 40.5766 41.9837 38.105 42.2842C35.1131 42.5847 33.0317 45.9655 33.7472 49.2712L28.9341 25.4551C28.2837 22.3748 25.6169 20.4214 22.9502 21.1727C20.2835 21.924 18.5924 25.0044 19.2428 28.0847L27.8934 71.134C27.9584 71.735 27.3731 72.1858 26.9178 71.735C24.4462 68.6547 21.3242 64.3723 21.1941 64.3723C19.503 62.0433 16.381 61.5925 14.3647 63.5459C12.3484 65.4992 11.9581 69.1055 13.6492 71.4345C13.8443 71.735 19.9583 80.2998 25.2267 85.7091C31.926 92.621 37.0643 95.4008 39.5359 96.5278C42.0075 97.6547 44.4141 98.1055 45.845 97.7299C47.2759 97.3542 58.1379 94.4241 58.1379 94.4241C60.2843 93.8231 62.0405 92.0951 62.821 89.691L64.3169 85.2583C67.1788 76.8438 67.6991 67.3775 65.943 58.2117L63.8616 47.8438C63.2763 44.9137 60.9998 42.8101 58.5282 43.1857Z" fill="white"/>
<path d="M21.3896 13.7345C22.4302 13.4339 23.0807 12.1567 22.8205 11.0298L20.9343 1.9391C20.7392 0.586761 19.6985 -0.0894084 18.5928 0.21111C17.5521 0.511629 16.9017 1.78884 17.1619 2.91578L19.0481 12.0816C19.2432 13.2837 20.3489 13.9598 21.3896 13.7345Z" fill="white"/>
<path d="M11.4374 20.4217C11.8927 20.7223 12.413 20.7974 12.9334 20.7223C13.3887 20.6471 13.844 20.1964 14.1692 19.6705C14.6895 18.6186 14.4293 17.1912 13.5188 16.5901L6.6243 11.7067C5.71371 11.1057 4.47792 11.4062 3.95758 12.458C3.43725 13.5098 3.69741 14.9373 4.608 15.5383L11.4374 20.4217Z" fill="white"/>
<path d="M12.6731 29.8129C12.413 28.6108 11.3072 27.8595 10.3316 28.16L2.39649 30.3388C1.35582 30.6393 0.705404 31.9165 0.965572 33.0435C1.22574 34.2455 2.33145 34.9968 3.30708 34.6963L11.2422 32.4424C12.3479 32.1419 12.9333 31.0149 12.6731 29.8129Z" fill="white"/>
<path d="M35.3083 23.7251C35.5685 24.9272 36.6742 25.6784 37.6499 25.3779L45.585 23.1992C46.6257 22.8987 47.2761 21.6214 47.0159 20.4945C46.7557 19.2924 45.65 18.5411 44.6744 18.8417L36.7393 21.0204C35.6336 21.2458 35.0482 22.523 35.3083 23.7251Z" fill="white"/>
<path d="M31.666 15.6883C32.1213 15.6131 32.5766 15.1624 32.9018 14.6364L37.1946 6.59758C37.7149 5.54577 37.4547 4.1183 36.5441 3.51727C35.6336 2.91623 34.3978 3.21675 33.8774 4.26856L29.5196 12.3074C28.9993 13.3592 29.2594 14.7867 30.17 15.3877C30.5603 15.6883 31.0806 15.8385 31.666 15.6883Z" fill="white"/>
</svg>
